<svg width="126" height="86" viewBox="0 0 126 86" fill="none" xmlns="http://www.w3.org/2000/svg">
<g clip-path="url(#clip0_296_1211)">
<path fill-rule="evenodd" clip-rule="evenodd" d="M67.0241 67.6064C52.8049 75.3115 36.542 80.971 20.4181 79.8622C14.5513 79.4593 9.12053 77.7677 3.5451 76.0859C3.15398 75.9685 2.93105 75.554 3.04839 75.1609C3.16768 74.7678 3.58227 74.5449 3.97534 74.6642C9.44321 76.3127 14.7664 77.9848 20.5198 78.3798C36.4149 79.473 52.4372 73.8447 66.4413 66.2335L66.3416 66.0087C65.2523 63.57 65.927 60.0108 67.7066 56.2756C70.2567 50.9211 75.0049 45.1677 79.2779 41.9899C81.1983 40.5623 83.0385 39.6549 84.5561 39.4652C85.7392 39.3166 86.7542 39.5825 87.5384 40.2905C89.2085 41.8002 89.1498 44.3757 87.8259 47.3619C85.0587 53.6081 76.9312 61.8334 72.5233 64.4715C71.1465 65.2949 69.7463 66.1045 68.3246 66.8926C68.5045 67.3267 68.6824 67.7511 68.8741 68.1559C69.4236 69.3078 70.0983 70.3149 71.3988 71.0052C73.4268 72.0788 75.8575 72.2646 78.3451 71.9869C82.227 71.5508 86.2457 69.9727 89.2046 68.6174C105.683 61.0688 113.843 47.976 118.22 34.8324C122.638 21.5577 123.216 8.22047 124.525 0.353063C124.591 -0.0517474 124.975 -0.323576 125.379 -0.257085C125.784 -0.190594 126.058 0.192703 125.99 0.597514C124.673 8.51576 124.077 21.9391 119.628 35.3017C115.138 48.7954 106.739 62.2187 89.8245 69.9688C86.7425 71.3807 82.5536 73.0097 78.5113 73.4634C75.7128 73.7763 72.9848 73.526 70.7026 72.3174C68.6551 71.2321 67.8415 69.5385 67.0241 67.6064ZM67.7477 65.5139L67.6968 65.4024C66.7444 63.2708 67.4915 60.1809 69.0481 56.9151C71.4985 51.7699 76.057 46.2375 80.1658 43.1828C81.5738 42.1346 82.9212 41.3817 84.1063 41.0649C85.0841 40.8048 85.9328 40.842 86.541 41.3934C87.1179 41.9117 87.3468 42.6255 87.337 43.4566C87.3272 44.4324 87.0026 45.553 86.4687 46.7596C83.809 52.7614 75.9964 60.662 71.7606 63.1965C70.4444 63.9826 69.1068 64.7571 67.7477 65.5139Z" fill="#9694FF"/>
<path fill-rule="evenodd" clip-rule="evenodd" d="M1.65995 73.7868C1.72449 74.1056 1.94156 74.5065 2.18015 74.9348C2.74727 75.9556 3.55494 77.0429 3.91477 77.5709C4.14553 77.9112 4.05557 78.3727 3.71725 78.6035C3.37698 78.8342 2.91545 78.7462 2.68469 78.406C2.24468 77.7587 1.17106 76.3076 0.594153 75.1049C0.285168 74.4596 0.124814 73.8631 0.160015 73.4348C0.218683 72.7054 0.795583 72.2497 1.93961 72.2771C3.29289 72.3103 5.80585 72.9889 7.91009 72.1734C8.29143 72.0248 8.7236 72.2165 8.87027 72.5978C9.0189 72.9811 8.82922 73.4113 8.44592 73.56C6.43947 74.3363 4.10056 73.9628 2.52629 73.8064C2.22709 73.777 1.87116 73.7809 1.65995 73.7868Z" fill="#9694FF"/>
</g>
<defs>
<clipPath id="clip0_296_1211">
<rect width="126" height="86" fill="white" transform="matrix(-1 0 0 1 126 0)"/>
</clipPath>
</defs>
</svg>
