<svg width="64" height="64" viewBox="0 0 64 64" fill="none" xmlns="http://www.w3.org/2000/svg">
<g clip-path="url(#clip0_296_1225)">
<path fill-rule="evenodd" clip-rule="evenodd" d="M27.9218 34.1621C28.1613 34.0863 28.3949 33.9633 28.628 33.8404C29.8961 33.2617 31.3778 32.6101 32.4132 31.6278C33.7687 30.3211 34.195 28.9793 34.0335 27.706C33.8047 25.9141 32.2665 24.2274 30.3207 23.3059C28.3915 22.3824 26.0862 22.1727 24.3563 23.0925C23.1692 23.7096 22.2304 24.872 21.8619 26.7335C21.4322 28.8416 22.2034 30.7137 23.5769 32.2763C24.095 32.8858 24.6918 33.3903 25.3425 33.8887C24.5899 34.1201 23.8298 34.3526 23.0588 34.5861C20.5245 35.2647 17.8254 35.6755 15.2097 35.8372C11.7551 36.0968 8.38345 35.7721 5.05166 34.8209C4.74697 34.7608 4.42735 34.9417 4.33954 35.2391C4.2522 35.5365 4.43052 35.8505 4.74072 35.9578C8.20313 36.9416 11.7096 37.2985 15.2993 37.0232C17.985 36.8055 20.7679 36.4325 23.3718 35.6979C24.4489 35.3807 25.5057 35.0661 26.5447 34.7055C28.0709 35.6281 29.7248 36.2967 31.1074 36.6617C40.3368 38.9347 51.7442 33.2486 59.262 28.0641C59.5259 27.8897 59.594 27.5465 59.4127 27.2805C59.2309 27.0146 58.8719 26.9608 58.608 27.1352C51.3311 32.148 40.3209 37.7402 31.3868 35.5285C30.3361 35.2683 29.1091 34.7892 27.9218 34.1621ZM26.6726 33.3984C27.1668 33.245 27.6522 33.0451 28.1306 32.7978C29.2888 32.2319 30.6639 31.6887 31.615 30.812C32.639 29.831 33.0089 28.8304 32.8893 27.8872C32.6974 26.3781 31.3943 25.0947 29.8226 24.3688C28.2294 23.5976 26.3264 23.341 24.9018 24.1294C23.9827 24.6195 23.2818 25.5151 22.9935 26.9366C22.6428 28.7004 23.3173 30.2485 24.4455 31.5047C25.0778 32.2445 25.847 32.8726 26.6726 33.3984Z" fill="#6663FF"/>
<path fill-rule="evenodd" clip-rule="evenodd" d="M58.4154 27.488C58.2763 27.7436 58.0545 28.0087 57.8323 28.274C57.4072 28.8021 56.9479 29.2865 56.7238 29.6956C55.3367 32.1546 53.704 35.1207 53.1521 37.913C53.0875 38.2077 53.2918 38.5188 53.6049 38.578C53.9177 38.6372 54.2255 38.4578 54.2847 38.1159C54.8181 35.4694 56.406 32.6517 57.732 30.2476C57.9778 29.8361 58.531 29.2454 58.9679 28.7158C59.3356 28.2422 59.6189 27.7783 59.6902 27.3393C59.7476 27.0933 59.6036 26.6794 59.0389 26.4581C58.2413 26.1684 56.1102 26.0818 55.9021 26.0582C53.7951 25.8255 51.9345 25.5642 50.4296 23.9212C50.2155 23.7069 49.8498 23.7019 49.6099 23.8734C49.3756 24.0922 49.363 24.4766 49.5776 24.6909C51.2913 26.5487 53.3907 26.9736 55.7903 27.22C55.9395 27.2026 57.2122 27.2455 58.1145 27.4274C58.2139 27.4636 58.3173 27.4516 58.4154 27.488Z" fill="#6663FF"/>
</g>
<defs>
<clipPath id="clip0_296_1225">
<rect width="56.9501" height="56.9501" fill="white" transform="translate(57.3989) rotate(83.3436)"/>
</clipPath>
</defs>
</svg>
