<svg width="164" height="164" viewBox="0 0 164 164" fill="none" xmlns="http://www.w3.org/2000/svg">
<g opacity="0.4">
<path d="M161 81.5764C161 88.4883 155.718 94.6143 154.013 100.989C152.308 107.363 153.712 115.523 150.372 121.297C147.032 127.07 139.345 129.839 134.595 134.595C129.844 139.351 127.157 146.985 121.297 150.372C115.523 153.712 107.589 152.25 100.989 154.013C94.6143 155.718 88.4883 161 81.5764 161C74.6645 161 68.5385 155.718 62.1641 154.013C55.7896 152.308 47.6294 153.712 41.856 150.372C36.0825 147.032 33.3143 139.345 28.558 134.595C23.8017 129.844 16.1674 127.157 12.7808 121.297C9.39418 115.437 10.9025 107.589 9.13989 100.989C7.37723 94.3889 2.15283 88.4883 2.15283 81.5764C2.15283 74.6645 7.43503 68.5385 9.13989 62.1641C10.8448 55.7896 9.44041 47.6294 12.7808 41.856C16.1212 36.0825 23.8075 33.3143 28.558 28.558C33.3085 23.8017 35.9958 16.1674 41.856 12.7808C47.7161 9.39417 55.5642 10.9025 62.1641 9.13989C68.7639 7.37723 74.6645 2.15283 81.5764 2.15283C88.4883 2.15283 94.6143 7.43502 100.989 9.13989C107.583 10.9025 115.523 9.44041 121.297 12.7808C127.07 16.1212 129.839 23.8075 134.595 28.558C139.351 33.3085 146.985 35.9958 150.372 41.856C153.759 47.7161 152.25 55.5642 154.013 62.1641C155.776 68.7639 161 74.6645 161 81.5764Z" stroke="#ADC5E9" stroke-width="4.22623" stroke-miterlimit="10"/>
<path d="M82.917 143.574C117.897 143.574 146.255 115.216 146.255 80.236C146.255 45.2555 117.897 16.8982 82.917 16.8982C47.9365 16.8982 19.5792 45.2555 19.5792 80.236C19.5792 115.216 47.9365 143.574 82.917 143.574Z" stroke="#B6CCED" stroke-width="4.22623" stroke-miterlimit="10"/>
<g opacity="0.5">
<path d="M89.6773 32.338C89.2907 32.3021 88.935 32.2015 88.6105 32.0363C88.2863 31.8662 88.0092 31.6479 87.779 31.3815C87.5537 31.1156 87.3842 30.8148 87.2705 30.4793C87.1621 30.1392 87.1254 29.7809 87.1605 29.4042C87.196 29.0225 87.2981 28.6771 87.4669 28.3678C87.6411 28.054 87.8658 27.7875 88.1412 27.5681C88.4166 27.3488 88.7266 27.1876 89.0711 27.0847C89.421 26.9772 89.7893 26.9415 90.1759 26.9775C90.4634 27.0042 90.7373 27.0697 90.9976 27.1739C91.2579 27.2781 91.4953 27.4127 91.7099 27.5776C91.9295 27.7431 92.1117 27.935 92.2563 28.1534L91.4606 28.8068C91.2939 28.5563 91.0922 28.3601 90.8555 28.2181C90.6236 28.0765 90.3665 27.9926 90.084 27.9663C89.851 27.9446 89.6288 27.969 89.4172 28.0393C89.2062 28.1046 89.0192 28.2072 88.8562 28.347C88.6936 28.4819 88.5606 28.6495 88.4569 28.8498C88.3538 29.0452 88.2909 29.2644 88.2683 29.5072C88.2462 29.7451 88.2675 29.9721 88.3324 30.1881C88.3978 30.3992 88.5001 30.5887 88.6395 30.7566C88.7793 30.9196 88.9469 31.0527 89.1423 31.1559C89.3426 31.2595 89.5642 31.3226 89.8071 31.3452C90.0797 31.3706 90.3403 31.3373 90.5888 31.2454C90.8373 31.1536 91.0632 31.0096 91.2664 30.8135L91.9077 31.5781C91.7257 31.7612 91.514 31.914 91.2727 32.0365C91.0313 32.159 90.7731 32.2475 90.498 32.3019C90.2284 32.3518 89.9548 32.3638 89.6773 32.338Z" fill="black"/>
<path d="M97.2414 33.3832L98.8219 28.401L102.651 29.6158L102.367 30.5125L99.5694 29.6252L99.2082 30.764L101.052 31.3488L100.776 32.2171L98.9327 31.6323L98.5579 32.8138L101.384 33.7102L101.099 34.607L97.2414 33.3832Z" fill="black"/>
<path d="M106.062 36.5206L108.667 31.9888L109.56 32.5023L110.131 36.7233L111.813 33.7971L112.693 34.3031L110.089 38.8349L109.26 38.3586L108.69 34.0005L106.949 37.0304L106.062 36.5206Z" fill="black"/>
<path d="M115.76 42.9224L118.628 39.7569L117.322 38.5738L117.963 37.8655L121.372 40.9535L120.731 41.6618L119.43 40.4838L116.563 43.6492L115.76 42.9224Z" fill="black"/>
<path d="M121.403 48.4891L125.641 45.43L127.136 47.5006C127.343 47.7872 127.468 48.0803 127.513 48.3798C127.564 48.6805 127.534 48.9627 127.424 49.2266C127.317 49.4945 127.134 49.7216 126.875 49.9081C126.605 50.1033 126.313 50.2005 125.999 50.1998C125.686 50.199 125.388 50.1099 125.106 49.9325L124.034 52.1339L123.326 51.1531L124.35 49.1524L123.66 48.1958L122.037 49.367L121.403 48.4891ZM124.38 47.6758L125.184 48.7898C125.327 48.9876 125.493 49.1071 125.682 49.1484C125.875 49.1938 126.056 49.1552 126.225 49.0329C126.395 48.9105 126.488 48.7509 126.506 48.5541C126.526 48.3613 126.465 48.166 126.322 47.9682L125.518 46.8542L124.38 47.6758Z" fill="black"/>
<path d="M127.497 58.3723C127.326 57.9852 127.23 57.576 127.208 57.1448C127.191 56.7116 127.251 56.2933 127.389 55.8898L128.349 56.1432C128.226 56.5295 128.166 56.8743 128.169 57.1776C128.175 57.4854 128.241 57.7828 128.367 58.0697C128.456 58.2701 128.555 58.4331 128.665 58.5587C128.779 58.6824 128.899 58.7628 129.024 58.8C129.151 58.8418 129.277 58.8355 129.399 58.7812C129.563 58.7089 129.663 58.5944 129.697 58.4378C129.736 58.2792 129.717 58.0454 129.64 57.7364L129.385 56.7145C129.274 56.279 129.281 55.906 129.405 55.5955C129.532 55.2895 129.768 55.0601 130.114 54.9074C130.41 54.7767 130.7 54.7383 130.985 54.7921C131.272 54.8505 131.534 54.9934 131.77 55.221C132.013 55.4511 132.22 55.7597 132.391 56.1467C132.546 56.4974 132.64 56.8719 132.675 57.2703C132.711 57.6732 132.684 58.0553 132.593 58.4164L131.62 58.2092C131.782 57.5394 131.751 56.9518 131.528 56.4463C131.449 56.2687 131.358 56.1239 131.254 56.0119C131.15 55.8999 131.041 55.8256 130.927 55.7889C130.82 55.7548 130.711 55.7618 130.602 55.8101C130.456 55.8744 130.365 55.977 130.33 56.118C130.299 56.2569 130.317 56.4583 130.384 56.7223L130.632 57.6904C130.766 58.2027 130.771 58.6276 130.648 58.9649C130.529 59.3002 130.285 59.5493 129.916 59.7121C129.607 59.8488 129.3 59.8864 128.995 59.825C128.695 59.7615 128.414 59.6054 128.152 59.3565C127.896 59.1102 127.678 58.7821 127.497 58.3723Z" fill="black"/>
<path d="M130.26 65.316L135.371 64.2214L136.212 68.1495L135.292 68.3466L134.678 65.4771L133.51 65.7273L133.915 67.6184L133.024 67.8091L132.619 65.9181L131.407 66.1777L132.028 69.0763L131.108 69.2733L130.26 65.316Z" fill="black"/>
<path d="M131.905 74.0324L137.124 76.2009L137.12 77.4479L131.886 79.5579L131.89 78.3856L133.266 77.8602L133.273 75.7023L131.901 75.1599L131.905 74.0324ZM134.138 76.0413L134.133 77.5346L136.062 76.7946L134.138 76.0413Z" fill="black"/>
<path d="M131.454 84.7359L136.557 85.8657L136.323 86.9229L132.153 85.9996L131.535 88.7919L130.601 88.5853L131.454 84.7359Z" fill="black"/>
<path d="M125.147 107.707C125.346 107.374 125.589 107.096 125.878 106.874C126.171 106.654 126.487 106.497 126.826 106.404C127.163 106.315 127.508 106.291 127.86 106.332C128.213 106.38 128.553 106.501 128.878 106.695C129.207 106.891 129.475 107.131 129.682 107.416C129.891 107.708 130.035 108.026 130.115 108.369C130.195 108.712 130.207 109.061 130.152 109.416C130.099 109.778 129.973 110.126 129.774 110.46C129.627 110.708 129.45 110.927 129.244 111.118C129.038 111.308 128.815 111.465 128.573 111.588C128.33 111.715 128.078 111.797 127.819 111.834L127.57 110.835C127.868 110.792 128.132 110.694 128.362 110.541C128.589 110.392 128.776 110.196 128.921 109.952C129.04 109.751 129.114 109.54 129.141 109.319C129.173 109.1 129.16 108.887 129.104 108.68C129.052 108.475 128.958 108.283 128.822 108.103C128.689 107.926 128.519 107.775 128.309 107.651C128.104 107.529 127.889 107.45 127.666 107.416C127.448 107.385 127.233 107.396 127.021 107.449C126.814 107.506 126.622 107.6 126.445 107.732C126.265 107.868 126.113 108.041 125.988 108.251C125.848 108.486 125.766 108.736 125.743 109C125.719 109.264 125.752 109.53 125.842 109.797L124.876 110.048C124.789 109.805 124.742 109.548 124.735 109.278C124.728 109.007 124.759 108.736 124.828 108.464C124.898 108.199 125.005 107.947 125.147 107.707Z" fill="black"/>
<path d="M120.955 114.09L124.775 117.657L122.034 120.593L121.346 119.951L123.349 117.806L122.476 116.991L121.156 118.405L120.49 117.783L121.81 116.369L120.904 115.523L118.881 117.69L118.193 117.048L120.955 114.09Z" fill="black"/>
<path d="M114.333 120.709L117.307 125.007L116.46 125.593L112.403 124.296L114.323 127.072L113.488 127.649L110.514 123.351L111.3 122.807L115.48 124.164L113.492 121.291L114.333 120.709Z" fill="black"/>
<path d="M104.387 126.717L106.014 130.666L107.643 129.995L108.008 130.879L103.755 132.631L103.391 131.747L105.013 131.079L103.386 127.13L104.387 126.717Z" fill="black"/>
<path d="M96.9366 129.423L97.8791 134.564L95.3673 135.024C95.0196 135.088 94.701 135.075 94.4115 134.987C94.1179 134.904 93.8757 134.756 93.6849 134.543C93.4891 134.331 93.3625 134.068 93.305 133.755C93.2449 133.427 93.2825 133.121 93.4179 132.838C93.5533 132.556 93.7615 132.325 94.0427 132.147L92.5151 130.233L93.705 130.015L95.072 131.799L96.2325 131.586L95.8716 129.618L96.9366 129.423ZM96.3927 132.46L95.0413 132.708C94.8014 132.752 94.6221 132.85 94.5034 133.004C94.3799 133.158 94.3369 133.338 94.3746 133.544C94.4123 133.749 94.5163 133.902 94.6865 134.003C94.8519 134.104 95.0545 134.133 95.2944 134.089L96.6458 133.841L96.3927 132.46Z" fill="black"/>
<path d="M85.394 130.681C85.817 130.693 86.2278 130.782 86.6265 130.948C87.0251 131.118 87.377 131.352 87.6823 131.65L87.0409 132.408C86.745 132.131 86.4593 131.929 86.1841 131.802C85.9038 131.674 85.6069 131.606 85.2934 131.597C85.0745 131.591 84.8847 131.61 84.7241 131.656C84.5633 131.706 84.4392 131.78 84.3518 131.877C84.2594 131.974 84.2113 132.089 84.2075 132.224C84.2025 132.403 84.2633 132.542 84.39 132.64C84.5166 132.743 84.7358 132.826 85.0478 132.89L86.0802 133.098C86.521 133.186 86.8549 133.352 87.082 133.597C87.3042 133.843 87.4099 134.154 87.3992 134.533C87.3901 134.856 87.3 135.135 87.1291 135.369C86.9532 135.603 86.7117 135.778 86.4046 135.894C86.0925 136.015 85.7249 136.069 85.3019 136.057C84.9188 136.046 84.5399 135.971 84.1654 135.831C83.7859 135.69 83.4526 135.502 83.1655 135.265L83.7705 134.475C84.306 134.908 84.85 135.133 85.4023 135.148C85.5964 135.154 85.7662 135.134 85.912 135.088C86.0577 135.042 86.1716 134.976 86.2537 134.889C86.3308 134.806 86.371 134.705 86.3743 134.586C86.3788 134.427 86.3251 134.301 86.2132 134.208C86.1011 134.12 85.9114 134.05 85.644 133.997L84.6634 133.805C84.1433 133.706 83.7574 133.528 83.5056 133.272C83.2538 133.021 83.1335 132.694 83.1449 132.291C83.1545 131.953 83.2524 131.659 83.4387 131.41C83.6249 131.167 83.8866 130.98 84.2239 130.85C84.5561 130.725 84.9462 130.669 85.394 130.681Z" fill="black"/>
<path d="M77.9364 130.195L76.73 135.281L72.8212 134.353L73.0384 133.438L75.8937 134.115L76.1694 132.953L74.2877 132.506L74.498 131.62L76.3797 132.066L76.6658 130.86L73.7814 130.176L73.9986 129.261L77.9364 130.195Z" fill="black"/>
<path d="M69.3585 127.937L65.1586 131.719L64.0343 131.18L64.3766 125.547L65.4336 126.054L65.3172 127.522L67.2629 128.455L68.3419 127.449L69.3585 127.937ZM66.5852 129.091L65.2388 128.445L65.0787 130.505L66.5852 129.091Z" fill="black"/>
<path d="M59.886 122.932L56.6741 127.056L55.8199 126.391L58.4445 123.021L56.1884 121.264L56.7757 120.51L59.886 122.932Z" fill="black"/>
<path d="M40.0923 100.988C40.2906 101.321 40.4184 101.668 40.4758 102.028C40.5288 102.39 40.5153 102.743 40.4352 103.085C40.3526 103.424 40.2091 103.738 40.0047 104.027C39.7934 104.315 39.5251 104.555 39.1998 104.749C38.8703 104.944 38.5308 105.065 38.1814 105.11C37.8253 105.154 37.4775 105.129 37.1381 105.035C36.7987 104.942 36.4861 104.786 36.2002 104.568C35.9075 104.348 35.662 104.071 35.4637 103.737C35.3162 103.489 35.2081 103.229 35.1393 102.957C35.0705 102.685 35.0397 102.414 35.0469 102.144C35.0515 101.869 35.0996 101.608 35.1912 101.363L36.1876 101.622C36.083 101.904 36.043 102.183 36.0674 102.458C36.0892 102.729 36.1726 102.986 36.3175 103.23C36.437 103.431 36.5874 103.597 36.7687 103.726C36.9457 103.859 37.1386 103.949 37.3476 103.999C37.5522 104.051 37.766 104.06 37.989 104.026C38.2077 103.995 38.4219 103.917 38.6316 103.792C38.8371 103.67 39.008 103.519 39.1446 103.34C39.2768 103.163 39.3699 102.969 39.4238 102.757C39.4733 102.548 39.4824 102.334 39.4509 102.116C39.4169 101.893 39.3376 101.676 39.213 101.467C39.0732 101.231 38.8931 101.04 38.6726 100.893C38.4521 100.746 38.2028 100.648 37.9247 100.599L38.1659 99.6307C38.421 99.6702 38.6691 99.7516 38.9101 99.8747C39.1512 99.9979 39.3746 100.155 39.5804 100.345C39.7793 100.534 39.95 100.748 40.0923 100.988Z" fill="black"/>
<path d="M36.4888 94.2554L31.5299 95.9074L30.2602 92.0961L31.1528 91.7988L32.0803 94.5828L33.2137 94.2052L32.6025 92.3704L33.4668 92.0825L34.078 93.9173L35.254 93.5255L34.317 90.7131L35.2096 90.4157L36.4888 94.2554Z" fill="black"/>
<path d="M33.8382 85.2763L28.6413 85.8353L28.5311 84.8108L31.6089 81.8662L28.2532 82.2272L28.1446 81.2175L33.3414 80.6584L33.4437 81.6087L30.2543 84.6329L33.7288 84.2592L33.8382 85.2763Z" fill="black"/>
<path d="M33.3116 73.6676L29.0651 73.2103L28.8764 74.9624L27.9261 74.86L28.4186 70.2868L29.3688 70.3891L29.181 72.1338L33.4275 72.5911L33.3116 73.6676Z" fill="black"/>
<path d="M34.4948 65.83L29.5281 64.2016L30.3237 61.775C30.4338 61.4392 30.5969 61.1652 30.8131 60.9532C31.0261 60.7349 31.2718 60.5928 31.5501 60.5269C31.83 60.4563 32.1212 60.4706 32.424 60.5698C32.7409 60.6737 32.9913 60.8527 33.1752 61.1069C33.359 61.361 33.462 61.6541 33.4841 61.9861L35.8952 61.5586L35.5184 62.7081L33.2981 63.0567L32.9306 64.1777L34.8321 64.8012L34.4948 65.83ZM32.0862 63.9009L32.5143 62.5954C32.5903 62.3636 32.5892 62.159 32.5112 61.9815C32.4348 61.7992 32.2972 61.6755 32.0985 61.6104C31.8999 61.5453 31.7158 61.5635 31.5463 61.6651C31.3783 61.7619 31.2563 61.9262 31.1803 62.158L30.7523 63.4636L32.0862 63.9009Z" fill="black"/>
<path d="M38.9042 55.0889C38.6916 55.4547 38.4173 55.7732 38.0813 56.0443C37.741 56.3129 37.3673 56.5103 36.9601 56.6364L36.6 55.7104C36.985 55.5829 37.2991 55.4286 37.5425 55.2476C37.7883 55.0623 37.99 54.8341 38.1476 54.5629C38.2576 54.3735 38.3311 54.1975 38.3681 54.0347C38.4008 53.8695 38.3954 53.7253 38.3518 53.6021C38.3107 53.4746 38.2321 53.3771 38.1159 53.3095C37.9609 53.2195 37.8101 53.2067 37.6633 53.2711C37.5122 53.333 37.3342 53.4857 37.1292 53.7294L36.4529 54.5368C36.1657 54.8823 35.8601 55.0962 35.5359 55.1785C35.2143 55.2564 34.8899 55.2004 34.5628 55.0103C34.283 54.8477 34.0811 54.6354 33.957 54.3733C33.8355 54.1069 33.7972 53.8112 33.8421 53.4861C33.8853 53.1543 34.0131 52.8054 34.2257 52.4395C34.4183 52.1081 34.6656 51.8114 34.9675 51.5493C35.272 51.2829 35.597 51.0802 35.9426 50.9413L36.3472 51.8501C35.7106 52.1134 35.2535 52.484 34.9759 52.9618C34.8783 53.1296 34.8148 53.2885 34.7853 53.4383C34.7558 53.5881 34.7598 53.72 34.7973 53.8339C34.8329 53.9409 34.9024 54.0245 35.0057 54.0845C35.1434 54.1645 35.2798 54.1776 35.4148 54.1236C35.5455 54.0671 35.6977 53.9339 35.8715 53.724L36.5087 52.9543C36.8445 52.5449 37.185 52.2908 37.5303 52.192C37.8712 52.0908 38.216 52.1414 38.5647 52.344C38.8573 52.514 39.0684 52.7403 39.1979 53.0228C39.3231 53.3028 39.3621 53.622 39.3151 53.9804C39.2662 54.332 39.1293 54.7015 38.9042 55.0889Z" fill="black"/>
<path d="M42.8944 48.7703L39.0032 45.2806L41.6853 42.2898L42.3857 42.918L40.4265 45.1027L41.3159 45.9003L42.6071 44.4605L43.2853 45.0687L41.9941 46.5085L42.9169 47.3361L44.8961 45.1292L45.5965 45.7573L42.8944 48.7703Z" fill="black"/>
<path d="M48.9765 42.3132L47.6604 36.8166L48.6714 36.0867L53.4564 39.0788L52.506 39.765L51.2719 38.9614L49.5223 40.2246L49.8906 41.6532L48.9765 42.3132ZM49.2877 39.3256L50.4985 38.4515L48.7654 37.3266L49.2877 39.3256Z" fill="black"/>
<path d="M57.8985 36.3833L55.8107 31.5915L56.8033 31.159L58.5093 35.0746L61.1311 33.9323L61.5128 34.8085L57.8985 36.3833Z" fill="black"/>
</g>
</g>
</svg>
