<svg xmlns="http://www.w3.org/2000/svg" width="32" height="32" viewBox="0 0 32 32" fill="none">
  <path d="M16 0C7.164 0 0 7.163 0 16C0 24.837 7.163 32 16 32C24.837 32 32 24.837 32 16C32 7.163 24.837 0 16 0ZM16 30.032C8.28 30.032 2 23.72 2 16C2 8.28 8.28 2 16 2C23.72 2 30 8.28 30 16C30 23.72 23.72 30.032 16 30.032ZM21.657 10.344C21.267 9.954 20.634 9.954 20.243 10.344L16.001 14.586L11.759 10.344C11.369 9.954 10.735 9.954 10.344 10.344C9.953 10.734 9.954 11.368 10.344 11.758L14.586 16L10.344 20.242C9.954 20.632 9.954 21.266 10.344 21.656C10.734 22.046 11.368 22.046 11.759 21.656L16.001 17.414L20.243 21.656C20.633 22.046 21.266 22.046 21.657 21.656C22.048 21.266 22.047 20.632 21.657 20.242L17.415 16L21.657 11.758C22.048 11.367 22.048 10.734 21.657 10.344Z" fill="#454545"/>
</svg>