<svg width="32" height="32" viewBox="0 0 32 32" fill="none" xmlns="http://www.w3.org/2000/svg">
<g id="group-svgrepo-com (1) 1" clip-path="url(#clip0_369_1906)">
<g id="group">
<path id="Vector" d="M32 21.1997C32 17.4663 30 14.533 27.0667 13.0663C28.4 11.733 29.3333 9.99967 29.3333 7.99967C29.3333 4.26634 26.4 1.33301 22.6667 1.33301C19.8667 1.33301 17.6 2.93301 16.5333 5.33301C16.4 5.33301 16.1333 5.33301 16 5.33301C15.8667 5.33301 15.6 5.33301 15.4667 5.33301C14.4 2.93301 12.1333 1.33301 9.33333 1.33301C5.6 1.33301 2.66667 4.26634 2.66667 7.99967C2.66667 9.99967 3.6 11.733 4.93333 13.0663C2 14.533 0 17.5997 0 21.1997V26.6663H6.66667V30.6663H25.3333V26.6663H32V21.1997ZM22.6667 3.99967C24.9333 3.99967 26.6667 5.73301 26.6667 7.99967C26.6667 10.133 24.9333 11.9997 22.6667 11.9997C22.6667 9.46634 21.2 7.33301 19.0667 6.13301C19.7333 4.79967 21.0667 3.99967 22.6667 3.99967ZM20 11.9997C20 14.2663 18.2667 15.9997 16 15.9997C13.7333 15.9997 12 14.2663 12 11.9997C12 9.73301 13.7333 7.99967 16 7.99967C18.2667 7.99967 20 9.73301 20 11.9997ZM9.33333 3.99967C10.9333 3.99967 12.2667 4.79967 12.9333 6.13301C10.8 7.33301 9.33333 9.46634 9.33333 11.9997C7.06667 11.9997 5.33333 10.2663 5.33333 7.99967C5.33333 5.73301 7.06667 3.99967 9.33333 3.99967ZM6.8 23.9997H2.66667V21.1997C2.66667 17.4663 5.46667 14.6663 9.33333 14.6663C9.46667 14.6663 9.6 14.6663 9.73333 14.6663C10.1333 15.5997 10.8 16.3997 11.4667 17.0663C8.93333 18.3997 7.2 20.933 6.8 23.9997ZM22.6667 27.9997H9.33333V25.1997C9.33333 21.4663 12.2667 18.6663 16 18.6663C19.8667 18.6663 22.6667 21.4663 22.6667 25.1997V27.9997ZM29.3333 23.9997H25.2C24.8 20.933 22.9333 18.3997 20.2667 17.0663C21.0667 16.3997 21.6 15.5997 22 14.6663C22.1333 14.6663 22.2667 14.6663 22.5333 14.6663C26.4 14.6663 29.2 17.4663 29.2 21.1997V23.9997H29.3333Z" fill="#1B16FF"/>
</g>
</g>
<defs>
<clipPath id="clip0_369_1906">
<rect width="32" height="32" fill="white"/>
</clipPath>
</defs>
</svg>
