<svg xmlns="http://www.w3.org/2000/svg" width="24" height="24" viewBox="0 0 24 24" fill="none">
  <path fill-rule="evenodd" clip-rule="evenodd" d="M3.35999 7.20003V16.8C3.35999 17.8604 4.2196 18.72 5.27999 18.72H18.72C19.7804 18.72 20.64 17.8604 20.64 16.8V7.20003C20.64 6.13964 19.7804 5.28003 18.72 5.28003H5.27999C4.2196 5.28003 3.35999 6.13964 3.35999 7.20003Z" stroke="black" stroke-width="1.44" stroke-linecap="round" stroke-linejoin="round"/>
  <path d="M14.8799 10.08H17.7599" stroke="black" stroke-width="1.44" stroke-linecap="round"/>
  <path d="M14.8799 12.96H17.7599" stroke="black" stroke-width="1.44" stroke-linecap="round"/>
  <path fill-rule="evenodd" clip-rule="evenodd" d="M11.0401 10.0799C11.0401 11.1403 10.1805 11.9999 9.12007 11.9999C8.05969 11.9999 7.20007 11.1403 7.20007 10.0799C7.20007 9.01952 8.05969 8.15991 9.12007 8.15991C9.62926 8.15991 10.1176 8.36219 10.4777 8.72227C10.8378 9.08234 11.0401 9.5707 11.0401 10.0799Z" stroke="black" stroke-width="1.44" stroke-linecap="round" stroke-linejoin="round"/>
  <path d="M5.28003 15.84C7.95171 12.8285 11.0899 13.775 12.96 15.84" stroke="black" stroke-width="1.44" stroke-linecap="round"/>
</svg>