<svg xmlns="http://www.w3.org/2000/svg" width="24" height="24" viewBox="0 0 24 24" fill="none">
  <path fill-rule="evenodd" clip-rule="evenodd" d="M15.9906 7.82251C16.2895 7.5357 16.7642 7.54547 17.051 7.84433L20.5408 11.4807C20.8193 11.7709 20.8193 12.2291 20.5408 12.5193L17.051 16.1557C16.7642 16.4545 16.2895 16.4643 15.9906 16.1775C15.6918 15.8907 15.682 15.4159 15.9688 15.1171L18.2402 12.7502H11.2725C10.8583 12.7502 10.5225 12.4144 10.5225 12.0002C10.5225 11.586 10.8583 11.2502 11.2725 11.2502H18.2406L15.9688 8.88295C15.682 8.58409 15.6918 8.10932 15.9906 7.82251Z" fill="#828282"/>
  <path fill-rule="evenodd" clip-rule="evenodd" d="M3.25 4C3.25 3.58579 3.58579 3.25 4 3.25H13.4545C13.8688 3.25 14.2045 3.58579 14.2045 4V7C14.2045 7.41421 13.8688 7.75 13.4545 7.75C13.0403 7.75 12.7045 7.41421 12.7045 7V4.75H4.75V19.25H12.7045V17C12.7045 16.5858 13.0403 16.25 13.4545 16.25C13.8688 16.25 14.2045 16.5858 14.2045 17V20C14.2045 20.4142 13.8688 20.75 13.4545 20.75H4C3.58579 20.75 3.25 20.4142 3.25 20V4Z" fill="#828282"/>
</svg>