<svg width="32" height="32" viewBox="0 0 32 32" fill="none" xmlns="http://www.w3.org/2000/svg">
<g id="paw-outline-svgrepo-com 1">
<path id="Vector" d="M28.6091 10.6313C28.387 10.5439 28.1503 10.4993 27.9116 10.5H27.8866C26.626 10.5188 25.2123 11.6994 24.4704 13.485C23.581 15.6213 23.9904 17.8069 25.3916 18.3688C25.6136 18.4561 25.85 18.5007 26.0885 18.5C27.3554 18.5 28.7885 17.3125 29.5366 15.515C30.4198 13.3788 30.0041 11.1931 28.6091 10.6313Z" stroke="#1B16FF" stroke-width="2" stroke-miterlimit="10"/>
<path id="Vector_2" d="M20.4749 18.9675C18.7374 16.0844 17.9874 15 15.9999 15C14.0124 15 13.2562 16.0913 11.5187 18.9675C10.0312 21.4275 7.02492 21.6325 6.27492 23.7219C6.12277 24.1046 6.04636 24.5132 6.04992 24.925C6.04992 26.6244 7.34992 28 8.94992 28C10.9374 28 13.6437 26.4131 16.0062 26.4131C18.3687 26.4131 21.0624 28 23.0499 28C24.6499 28 25.9437 26.625 25.9437 24.925C25.9451 24.5128 25.8666 24.1042 25.7124 23.7219C24.9624 21.625 21.9624 21.4275 20.4749 18.9675Z" stroke="#1B16FF" stroke-width="2" stroke-miterlimit="10"/>
<path id="Vector_3" d="M12.0322 12.25C12.1159 12.2501 12.1994 12.2438 12.2822 12.2313C13.7328 12.0206 14.6384 10.0106 14.3097 7.74063C14.0003 5.60063 12.7016 4 11.3434 4C11.2597 3.99993 11.1762 4.0062 11.0934 4.01875C9.6428 4.22938 8.73718 6.23938 9.06593 8.50938C9.3753 10.6431 10.6741 12.25 12.0322 12.25Z" stroke="#1B16FF" stroke-width="2" stroke-miterlimit="10"/>
<path id="Vector_4" d="M22.9328 8.50938C23.2616 6.23938 22.3559 4.22938 20.9053 4.01875C20.8226 4.0062 20.739 3.99993 20.6553 4C19.2972 4 18.0009 5.60063 17.6909 7.74063C17.3622 10.0106 18.2678 12.0206 19.7184 12.2313C19.8012 12.2438 19.8847 12.2501 19.9684 12.25C21.3266 12.25 22.6253 10.6431 22.9328 8.50938Z" stroke="#1B16FF" stroke-width="2" stroke-miterlimit="10"/>
<path id="Vector_5" d="M6.611 18.3688C8.01037 17.8063 8.41912 15.6188 7.531 13.485C6.7835 11.6875 5.35162 10.5 4.08662 10.5C3.84813 10.4994 3.61167 10.5439 3.38975 10.6313C1.99037 11.1938 1.58162 13.3813 2.46975 15.515C3.21725 17.3125 4.64912 18.5 5.91412 18.5C6.15262 18.5007 6.38908 18.4561 6.611 18.3688Z" stroke="#1B16FF" stroke-width="2" stroke-miterlimit="10"/>
</g>
</svg>
