<svg width="50" height="51" viewBox="0 0 50 51" fill="none" xmlns="http://www.w3.org/2000/svg">
<g id="bank">
<path id="Vector" d="M4.16797 18.3067C4.16797 15.8146 5.17293 14.2874 7.25261 13.13L15.8135 8.36576C20.2994 5.86932 22.5423 4.62109 25.0013 4.62109C27.4603 4.62109 29.7032 5.86932 34.189 8.36576L42.7501 13.13C44.8296 14.2874 45.8346 15.8146 45.8346 18.3067C45.8346 18.9824 45.8346 19.3203 45.7609 19.5981C45.3732 21.0574 44.0507 21.2878 42.7736 21.2878H7.22897C5.95186 21.2878 4.62947 21.0574 4.24176 19.5981C4.16797 19.3203 4.16797 18.9824 4.16797 18.3067Z" stroke="url(#paint0_linear_42_1761)" stroke-width="3.125"/>
<path id="Vector_2" d="M24.9932 15.0376H25.0119" stroke="url(#paint1_linear_42_1761)" stroke-width="4.16667" stroke-linecap="round" stroke-linejoin="round"/>
<path id="Vector_3" d="M8.33496 21.2878V38.9962M16.6683 21.2878V38.9962" stroke="url(#paint2_linear_42_1761)" stroke-width="3.125"/>
<path id="Vector_4" d="M33.335 21.2878V38.9962M41.6683 21.2878V38.9962" stroke="url(#paint3_linear_42_1761)" stroke-width="3.125"/>
<path id="Vector_5" d="M39.5846 38.9961H10.418C6.9662 38.9961 4.16797 41.7942 4.16797 45.2461C4.16797 45.8213 4.63434 46.2878 5.20964 46.2878H44.793C45.3682 46.2878 45.8346 45.8213 45.8346 45.2461C45.8346 41.7942 43.0365 38.9961 39.5846 38.9961Z" stroke="url(#paint4_linear_42_1761)" stroke-width="3.125"/>
</g>
<defs>
<linearGradient id="paint0_linear_42_1761" x1="4.16797" y1="4.62109" x2="47.2607" y2="10.1278" gradientUnits="userSpaceOnUse">
<stop stop-color="#7B78FF"/>
<stop offset="1" stop-color="#413DFF"/>
</linearGradient>
<linearGradient id="paint1_linear_42_1761" x1="24.9932" y1="15.0376" x2="25.0129" y2="15.0376" gradientUnits="userSpaceOnUse">
<stop stop-color="#7B78FF"/>
<stop offset="1" stop-color="#413DFF"/>
</linearGradient>
<linearGradient id="paint2_linear_42_1761" x1="8.33496" y1="21.2878" x2="17.0892" y2="21.4984" gradientUnits="userSpaceOnUse">
<stop stop-color="#7B78FF"/>
<stop offset="1" stop-color="#413DFF"/>
</linearGradient>
<linearGradient id="paint3_linear_42_1761" x1="33.335" y1="21.2878" x2="42.0892" y2="21.4984" gradientUnits="userSpaceOnUse">
<stop stop-color="#7B78FF"/>
<stop offset="1" stop-color="#413DFF"/>
</linearGradient>
<linearGradient id="paint4_linear_42_1761" x1="4.16797" y1="38.9961" x2="44.5217" y2="50.7829" gradientUnits="userSpaceOnUse">
<stop stop-color="#7B78FF"/>
<stop offset="1" stop-color="#413DFF"/>
</linearGradient>
</defs>
</svg>
