<svg xmlns="http://www.w3.org/2000/svg" width="24" height="24" viewBox="0 0 24 24" fill="none">
  <path fill-rule="evenodd" clip-rule="evenodd" d="M4.00098 7.00003C4.00098 6.44775 4.4487 6.00003 5.00098 6.00003H19.001C19.5533 6.00003 20.001 6.44775 20.001 7.00003V8.00003H19.9624H19.9245H19.8867H19.8489H19.8112H19.7735H19.7358H19.6982H19.6606H19.623H19.5855H19.548H19.5106H19.4732H19.4359H19.3985H19.3613H19.324H19.2868H19.2497H19.2125H19.1754H19.1384H19.1014H19.0644H19.0274H18.9905H18.9537H18.9168H18.88H18.8433H18.8066H18.7699H18.7332H18.6966H18.66H18.6235H18.5869H18.5505H18.514H18.4776H18.4412H18.4049H18.3686H18.3323H18.296H18.2598H18.2236H18.1875H18.1514H18.1153H18.0792H18.0432H18.0072H17.9713H17.9353H17.8994H17.8636H17.8278H17.7919H17.7562H17.7204H17.6847H17.649H17.6134H17.5778H17.5422H17.5066H17.4711H17.4356H17.4001H17.3646H17.3292H17.2938H17.2585H17.2231H17.1878H17.1525H17.1173H17.0821H17.0468H17.0117H16.9765H16.9414H16.9063H16.8712H16.8362H16.8012H16.7662H16.7312H16.6963H16.6614H16.6265H16.5916H16.5567H16.5219H16.4871H16.4524H16.4176H16.3829H16.3482H16.3135H16.2788H16.2442H16.2096H16.175H16.1404H16.1059H16.0714H16.0369H16.0024H15.9679H15.9335H15.8991H15.8647H15.8303H15.796H15.7616H15.7273H15.693H15.6587H15.6245H15.5902H15.556H15.5218H15.4876H15.4535H15.4193H15.3852H15.3511H15.317H15.283H15.2489H15.2149H15.1808H15.1468H15.1129H15.0789H15.0449H15.011H14.9771H14.9432H14.9093H14.8754H14.8416H14.8077H14.7739H14.7401H14.7063H14.6725H14.6387H14.605H14.5712H14.5375H14.5038H14.4701H14.4364H14.4027H14.3691H14.3354H14.3018H14.2682H14.2346H14.201H14.1674H14.1338H14.1002H14.0667H14.0332H13.9996H13.9661H13.9326H13.8991H13.8656H13.8321H13.7987H13.7652H13.7318H13.6983H13.6649H13.6315H13.598H13.5646H13.5312H13.4979H13.4645H13.4311H13.3977H13.3644H13.331H13.2977H13.2644H13.231H13.1977H13.1644H13.1311H13.0978H13.0645H13.0312H12.9979H12.9646H12.9313H12.8981H12.8648H12.8315H12.7983H12.765H12.7318H12.6985H12.6653H12.6321H12.5988H12.5656H12.5324H12.4991H12.4659H12.4327H12.3995H12.3663H12.3331H12.2999H12.2666H12.2334H12.2002H12.167H12.1338H12.1006H12.0674H12.0342H12.001H11.9678H11.9346H11.9014H11.8682H11.835H11.8018H11.7686H11.7354H11.7021H11.6689H11.6357H11.6025H11.5693H11.5361H11.5029H11.4696H11.4364H11.4032H11.3699H11.3367H11.3035H11.2702H11.237H11.2037H11.1705H11.1372H11.1039H11.0707H11.0374H11.0041H10.9708H10.9375H10.9042H10.8709H10.8376H10.8043H10.771H10.7376H10.7043H10.671H10.6376H10.6043H10.5709H10.5375H10.5041H10.4708H10.4374H10.404H10.3705H10.3371H10.3037H10.2702H10.2368H10.2033H10.1699H10.1364H10.1029H10.0694H10.0359H10.0024H9.96882H9.93528H9.90173H9.86817H9.83459H9.80101H9.76741H9.7338H9.70017H9.66654H9.63289H9.59923H9.56556H9.53187H9.49817H9.46446H9.43073H9.39699H9.36324H9.32947H9.29569H9.26189H9.22808H9.19425H9.16041H9.12656H9.09268H9.0588H9.02489H8.99097H8.95704H8.92309H8.88912H8.85513H8.82113H8.78711H8.75308H8.71902H8.68495H8.65087H8.61676H8.58263H8.54849H8.51433H8.48015H8.44595H8.41174H8.3775H8.34324H8.30897H8.27467H8.24036H8.20603H8.17167H8.13729H8.1029H8.06848H8.03404H7.99959H7.96511H7.93061H7.89608H7.86154H7.82697H7.79238H7.75777H7.72314H7.68848H7.6538H7.6191H7.58437H7.54962H7.51485H7.48005H7.44523H7.41039H7.37552H7.34063H7.30571H7.27076H7.2358H7.2008H7.16578H7.13074H7.09567H7.06057H7.02545H6.9903H6.95513H6.91993H6.8847H6.84944H6.81416H6.77885H6.74352H6.70815H6.67276H6.63734H6.60189H6.56641H6.5309H6.49537H6.4598H6.42421H6.38859H6.35294H6.31725H6.28154H6.2458H6.21003H6.17423H6.13839H6.10253H6.06664H6.03071H5.99475H5.95877H5.92275H5.88669H5.85061H5.81449H5.77835H5.74216H5.70595H5.6697H5.63343H5.59711H5.56077H5.52439H5.48797H5.45152H5.41504H5.37853H5.34198H5.30539H5.26877H5.23211H5.19542H5.1587H5.12194H5.08514H5.04831H5.01144H4.97453H4.93759H4.90061H4.86359H4.82654H4.78945H4.75232H4.71516H4.67796H4.64072H4.60344H4.56612H4.52877H4.49137H4.45394H4.41647H4.37896H4.34141H4.30382H4.26619H4.22852H4.19081H4.15306H4.11527H4.07744H4.03957H4.00166L4.00098 7.00003ZM4.00098 18V11H20.001V18C20.001 18.5523 19.5533 19 19.001 19H5.00098C4.4487 19 4.00098 18.5523 4.00098 18ZM5.00098 4.00003C3.34413 4.00003 2.00098 5.34318 2.00098 7.00003V9.00003V10V18C2.00098 19.6569 3.34413 21 5.00098 21H19.001C20.6579 21 22.001 19.6569 22.001 18V10V9.00003V7.00003C22.001 5.34318 20.6579 4.00003 19.001 4.00003H5.00098ZM14.001 14C13.4487 14 13.001 14.4477 13.001 15C13.001 15.5523 13.4487 16 14.001 16H18.001C18.5533 16 19.001 15.5523 19.001 15C19.001 14.4477 18.5533 14 18.001 14H14.001Z" fill="#828282"/>
</svg>