<svg width="32" height="32" viewBox="0 0 32 32" fill="none" xmlns="http://www.w3.org/2000/svg">
<g id="car-side-svgrepo-com 1">
<path id="Vector" d="M10.667 22.6665H21.3337M10.667 22.6665C10.667 24.1393 9.47309 25.3332 8.00033 25.3332C6.52757 25.3332 5.33366 24.1393 5.33366 22.6665M10.667 22.6665C10.667 21.1937 9.47309 19.9998 8.00033 19.9998C6.52757 19.9998 5.33366 21.1937 5.33366 22.6665M21.3337 22.6665C21.3337 24.1393 22.5275 25.3332 24.0003 25.3332C25.4731 25.3332 26.667 24.1393 26.667 22.6665M21.3337 22.6665C21.3337 21.1937 22.5275 19.9998 24.0003 19.9998C25.4731 19.9998 26.667 21.1937 26.667 22.6665M5.33366 22.6665H4.80033C4.05359 22.6665 3.68022 22.6665 3.39501 22.5212C3.14413 22.3933 2.94015 22.1894 2.81231 21.9385C2.66699 21.6533 2.66699 21.28 2.66699 20.5332V18.9332C2.66699 17.4397 2.66699 16.6929 2.95765 16.1225C3.2133 15.6208 3.62125 15.2128 4.12302 14.9572C4.69345 14.6665 5.44019 14.6665 6.93366 14.6665H22.9337C23.9246 14.6665 24.4201 14.6665 24.8346 14.7321C27.1167 15.0936 28.9066 16.8834 29.2681 19.1656C29.3337 19.5801 29.3337 20.0756 29.3337 21.0665C29.3337 21.3142 29.3337 21.4381 29.3173 21.5417C29.2269 22.1122 28.7794 22.5597 28.2089 22.6501C28.1053 22.6665 27.9814 22.6665 27.7337 22.6665H26.667M13.3337 6.6665V14.6665M5.33366 14.6665L5.77569 12.0143C6.09234 10.1144 6.25067 9.16444 6.72473 8.45157C7.14261 7.82317 7.72973 7.3258 8.41827 7.01692C9.19939 6.6665 10.1625 6.6665 12.0886 6.6665H16.5751C17.8274 6.6665 18.4535 6.6665 19.0219 6.8391C19.5251 6.99192 19.9931 7.24242 20.3994 7.57632C20.8583 7.95348 21.2057 8.47446 21.9003 9.51642L25.3337 14.6665" stroke="#1B16FF" stroke-width="2.66667" stroke-linecap="round" stroke-linejoin="round"/>
</g>
</svg>
