<svg width="17" height="16" viewBox="0 0 17 16" fill="none" xmlns="http://www.w3.org/2000/svg">
<g id="Loading" clip-path="url(#clip0_42_1212)">
<path id="Vector" d="M8.796 4.64648C8.43406 4.64648 8.13793 4.35034 8.13793 3.9884V1.35608C8.13793 0.994134 8.43406 0.697998 8.796 0.697998C9.15795 0.697998 9.45408 0.994134 9.45408 1.35608V3.9884C9.45408 4.35034 9.15795 4.64648 8.796 4.64648ZM8.796 15.1757C8.43406 15.1757 8.13793 14.8796 8.13793 14.5177V11.8854C8.13793 11.5234 8.43406 11.2273 8.796 11.2273C9.15795 11.2273 9.45408 11.5234 9.45408 11.8854V14.5177C9.45408 14.8796 9.15795 15.1757 8.796 15.1757ZM15.3768 8.59495H12.7445C12.3825 8.59495 12.0864 8.29882 12.0864 7.93687C12.0864 7.57493 12.3825 7.27879 12.7445 7.27879H15.3768C15.7387 7.27879 16.0349 7.57493 16.0349 7.93687C16.0349 8.29882 15.7387 8.59495 15.3768 8.59495ZM4.84753 8.59495H2.21521C1.85326 8.59495 1.55713 8.29882 1.55713 7.93687C1.55713 7.57493 1.85326 7.27879 2.21521 7.27879H4.84753C5.20947 7.27879 5.50561 7.57493 5.50561 7.93687C5.50561 8.29882 5.20947 8.59495 4.84753 8.59495ZM13.4486 13.2476C13.2775 13.2476 13.113 13.1818 12.9814 13.0567L11.119 11.1944C11.0581 11.1334 11.0098 11.0611 10.9768 10.9815C10.9438 10.9019 10.9269 10.8166 10.9269 10.7304C10.9269 10.6443 10.9438 10.5589 10.9768 10.4793C11.0098 10.3997 11.0581 10.3274 11.119 10.2665C11.18 10.2055 11.2523 10.1572 11.3319 10.1242C11.4115 10.0913 11.4968 10.0743 11.583 10.0743C11.6691 10.0743 11.7545 10.0913 11.8341 10.1242C11.9137 10.1572 11.986 10.2055 12.0469 10.2665L13.9093 12.1288C14.0011 12.2207 14.0636 12.3379 14.0887 12.4653C14.1138 12.5928 14.1005 12.7249 14.0505 12.8447C14.0004 12.9646 13.9158 13.0669 13.8075 13.1386C13.6992 13.2104 13.572 13.2483 13.442 13.2476H13.4486ZM6.00575 5.8047C5.83465 5.8047 5.67013 5.73889 5.53851 5.61385L3.67615 3.75149C3.61522 3.69056 3.56689 3.61823 3.53392 3.53863C3.50094 3.45902 3.48397 3.3737 3.48397 3.28754C3.48397 3.20138 3.50094 3.11606 3.53392 3.03646C3.56689 2.95685 3.61522 2.88452 3.67615 2.8236C3.73707 2.76267 3.8094 2.71434 3.88901 2.68137C3.96861 2.64839 4.05393 2.63142 4.14009 2.63142C4.22625 2.63142 4.31157 2.64839 4.39118 2.68137C4.47078 2.71434 4.54311 2.76267 4.60404 2.8236L6.4664 4.68596C6.55824 4.77786 6.62069 4.89498 6.64582 5.02245C6.67096 5.14991 6.65765 5.28197 6.60758 5.40186C6.55751 5.52174 6.47294 5.62404 6.36461 5.69577C6.25628 5.76749 6.12908 5.80541 5.99917 5.8047H6.00575ZM4.14338 13.2476C3.97228 13.2476 3.80776 13.1818 3.67615 13.0567C3.61514 12.9959 3.56674 12.9235 3.53372 12.8439C3.50069 12.7643 3.48369 12.679 3.48369 12.5928C3.48369 12.5066 3.50069 12.4213 3.53372 12.3416C3.56674 12.262 3.61514 12.1897 3.67615 12.1288L5.53851 10.2665C5.59944 10.2055 5.67177 10.1572 5.75137 10.1242C5.83098 10.0913 5.91629 10.0743 6.00246 10.0743C6.08862 10.0743 6.17394 10.0913 6.25354 10.1242C6.33315 10.1572 6.40548 10.2055 6.4664 10.2665C6.52733 10.3274 6.57566 10.3997 6.60863 10.4793C6.6416 10.5589 6.65858 10.6443 6.65858 10.7304C6.65858 10.8166 6.6416 10.9019 6.60863 10.9815C6.57566 11.0611 6.52733 11.1334 6.4664 11.1944L4.60404 13.0567C4.47242 13.1883 4.3079 13.2476 4.1368 13.2476H4.14338ZM11.5863 5.8047C11.4152 5.8047 11.2506 5.73889 11.119 5.61385C11.058 5.55297 11.0096 5.48066 10.9766 5.40105C10.9436 5.32144 10.9266 5.23609 10.9266 5.14991C10.9266 5.06372 10.9436 4.97838 10.9766 4.89877C11.0096 4.81916 11.058 4.74684 11.119 4.68596L12.9814 2.8236C13.0423 2.76267 13.1146 2.71434 13.1943 2.68137C13.2739 2.64839 13.3592 2.63142 13.4453 2.63142C13.5315 2.63142 13.6168 2.64839 13.6964 2.68137C13.776 2.71434 13.8484 2.76267 13.9093 2.8236C13.9702 2.88452 14.0185 2.95685 14.0515 3.03646C14.0845 3.11606 14.1015 3.20138 14.1015 3.28754C14.1015 3.3737 14.0845 3.45902 14.0515 3.53863C14.0185 3.61823 13.9702 3.69056 13.9093 3.75149L12.0469 5.61385C11.9153 5.74547 11.7508 5.8047 11.5797 5.8047H11.5863Z" fill="#4945FF"/>
</g>
<defs>
<clipPath id="clip0_42_1212">
<rect width="15.7939" height="15.7939" fill="white" transform="translate(0.898926 0.0397949)"/>
</clipPath>
</defs>
</svg>
