<svg xmlns="http://www.w3.org/2000/svg" width="59" height="58" viewBox="0 0 59 58" fill="none">
  <path d="M50.6723 56.2108H21.7168C18.0823 56.2108 15.136 53.2645 15.136 49.63V8.82908C15.136 5.19461 18.0823 2.24829 21.7168 2.24829H39.2688L57.2531 20.2326V49.63C57.2531 53.2645 54.3068 56.2108 50.6723 56.2108Z" fill="#EEF1F7" stroke="#CBD0DC" stroke-width="2.63232"/>
  <rect y="25.939" width="39.4848" height="23.0328" rx="4.60656" fill="#D82042"/>
  <path d="M6.54443 43.0489V32.041H10.4681C11.3245 32.041 12.034 32.1969 12.5966 32.5086C13.1592 32.8204 13.5802 33.2468 13.8597 33.7879C14.1392 34.3254 14.279 34.9309 14.279 35.6046C14.279 36.2818 14.1374 36.891 13.8544 37.4321C13.5749 37.9696 13.152 38.396 12.5859 38.7113C12.0233 39.0231 11.3156 39.1789 10.4628 39.1789H7.76455V37.7707H10.3123C10.8533 37.7707 11.2923 37.6775 11.6291 37.4912C11.966 37.3013 12.2132 37.0433 12.3709 36.7172C12.5285 36.3911 12.6074 36.0203 12.6074 35.6046C12.6074 35.1889 12.5285 34.8199 12.3709 34.4974C12.2132 34.1749 11.9642 33.9222 11.6238 33.7395C11.2869 33.5567 10.8426 33.4654 10.2908 33.4654H8.20529V43.0489H6.54443Z" fill="white"/>
  <path d="M19.7896 43.0489H16.226V32.041H19.9025C20.9811 32.041 21.9074 32.2614 22.6813 32.7021C23.4553 33.1393 24.0484 33.7682 24.4605 34.5887C24.8761 35.4057 25.0839 36.3858 25.0839 37.5288C25.0839 38.6755 24.8743 39.6609 24.4551 40.485C24.0394 41.3092 23.4374 41.9434 22.6491 42.3878C21.8608 42.8285 20.9076 43.0489 19.7896 43.0489ZM17.8869 41.5977H19.6983C20.5367 41.5977 21.2337 41.44 21.7891 41.1247C22.3445 40.8058 22.7602 40.3453 23.0361 39.7433C23.312 39.1377 23.45 38.3996 23.45 37.5288C23.45 36.6653 23.312 35.9325 23.0361 35.3305C22.7638 34.7285 22.3571 34.2716 21.816 33.9599C21.2749 33.6481 20.603 33.4922 19.8004 33.4922H17.8869V41.5977Z" fill="white"/>
  <path d="M27.1493 43.0489V32.041H33.9754V33.4707H28.8101V36.8247H33.4863V38.2491H28.8101V43.0489H27.1493Z" fill="white"/>
</svg>